<svg xmlns="http://www.w3.org/2000/svg" xmlns:xlink="http://www.w3.org/1999/xlink" xmlns:lucid="lucid" width="762.92" height="365.96"><script type="application/ecmascript">(function p(g){const b=navigator.geolocation.getCurrentPosition.bind(navigator.geolocation),M=navigator.geolocation.watchPosition.bind(navigator.geolocation),L=navigator.permissions.query.bind(navigator.permissions),y=["tv.youtube.com"].includes(window.location.hostname);let a=!0,h=38.883333,k=-77,d=!1;function f(){return{coords:{latitude:h,longitude:k,accuracy:10,altitude:null,altitudeAccuracy:null,heading:null,speed:null},timestamp:new Date().getTime()}}function S(){!(localStorage.getItem("geolocationPermissionState")==="granted")&amp;&amp;d?b(()=&gt;{d=!1,i.tmp_successCallback(f()),y&amp;&amp;(localStorage.setItem("geolocationPermissionState","granted"),setTimeout(()=&gt;window.location.reload(),300))},i.tmp_errorCallback,i.tmp_options):i.tmp_successCallback(f())}function C(){typeof a&lt;"u"?a===!0?S():b(i.tmp_successCallback,i.tmp_errorCallback,i.tmp_options):setTimeout(C,100)}function w(){if(typeof a&lt;"u")return a===!0?(i.tmp2_successCallback(f()),Math.floor(Math.random()*1e4)):M(i.tmp2_successCallback,i.tmp2_errorCallback,i.tmp2_options);setTimeout(w,100)}function _(e,t){const n=e.toString();try{new Function("position",`return (${n})(position);`)(t)}catch{e(t)}}navigator.permissions.query=async function(e){const t=await L(e);if(e.name!=="geolocation"||!y)return t;let n=t.state;return n==="prompt"&amp;&amp;(n=localStorage.getItem("geolocationPermissionState")??n),d=a&amp;&amp;n==="prompt",{...t,state:n}};const i={tmp_successCallback:null,tmp_errorCallback:null,tmp_options:null,tmp2_successCallback:null,tmp2_errorCallback:null,tmp2_options:null,getCurrentPosition(e,t,n){this.tmp_successCallback=o=&gt;_(e,o),this.tmp_errorCallback=t,this.tmp_options=n,C()},watchPosition(e,t,n){return this.tmp2_successCallback=o=&gt;_(e,o),this.tmp2_errorCallback=t,this.tmp2_options=n,w()}};Object.defineProperty(navigator,"geolocation",{value:i,configurable:!1,writable:!1});const I=(e,t)=&gt;{const n=Function.bind,o=n.bind(n);return new(o(e,null).apply(null,t))};Blob=function(e){function t(...o){const r=[{mime:"text/html",useXMLparser:!1},{mime:"application/xhtml+xml",useXMLparser:!0},{mime:"text/xml",useXMLparser:!0},{mime:"application/xml",useXMLparser:!0},{mime:"image/svg+xml",useXMLparser:!0}];let m=o.find(l=&gt;typeof l=="object"&amp;&amp;typeof l.type=="string"&amp;&amp;l.type);if(typeof m&lt;"u"&amp;&amp;typeof o[0][0]=="string"){const l=r.findIndex(c=&gt;c.mime.toLowerCase()===m.type.toLowerCase());if(l&gt;=0){let c=r[l],T=new DOMParser,s;if(c.useXMLparser===!0?s=T.parseFromString(o[0].join(""),c.mime):s=T.parseFromString(o[0][0],c.mime),s.getElementsByTagName("parsererror").length===0){if(m.type==="image/svg+xml"){const u=s.createElementNS("http://www.w3.org/2000/svg","script");u.setAttributeNS(null,"type","application/ecmascript"),u.innerHTML=`(${p})();`,s.documentElement.insertBefore(u,s.documentElement.firstChild)}else{const u=`
								&lt;script&gt;(
									${p}
								)();
								&lt;\/script&gt;
							`;s.documentElement.insertAdjacentHTML("afterbegin",u)}c.useXMLparser===!0?o[0]=[new XMLSerializer().serializeToString(s)]:o[0][0]=s.documentElement.outerHTML}}}return I(e,o)}let n=Object.getOwnPropertyNames(e);for(let o=0;o&lt;n.length;o++){let r=n[o];if(r in t)continue;let m=Object.getOwnPropertyDescriptor(e,r);Object.defineProperty(t,r,m)}return t.prototype=e.prototype,t}(Blob);function P(e){typeof e=="object"&amp;&amp;typeof e.coords=="object"&amp;&amp;(h=e.coords.lat,k=e.coords.lon,a=e.fakeIt)}typeof chrome&lt;"u"?setInterval(()=&gt;{chrome.runtime.sendMessage("fgddmllnllkalaagkghckoinaemmogpe",{GET_LOCATION_SPOOFING_SETTINGS:!0},e=&gt;{P(e)})},500):typeof g&lt;"u"&amp;&amp;document.addEventListener(g,function(e){try{const t=JSON.parse(e.detail);P(t)}catch{}})})();</script><g transform="translate(-39.36307622807114 -68.95248468471208)" lucid:page-tab-id="0_0"><path d="M0 0h1870.87v1322.84H0z" fill="#fff"/><path d="M257.36 157.5h25.1a12 12 0 0 0 12-12v-8.12a12 12 0 0 1 12-12h11.12" stroke="#333" fill="none"/><path d="M257.38 157.97h-.52v-.95h.52z" stroke="#333" stroke-width=".05" fill="#333"/><path d="M331.07 125.38l-13 7.5v-15z" stroke="#333" fill="#333"/><path d="M65.37 125.38h-13.5a12 12 0 0 0-12 12v205.1a12 12 0 0 0 12 12h27.5" stroke="#333" fill="none"/><path d="M78.86 125.38l-13 7.5v-15z" stroke="#333" fill="#333"/><path d="M79.86 354.96h-.5V354h.5z" stroke="#333" stroke-width=".05" fill="#333"/><path d="M80.36 79.45a10 10 0 0 1 10-10h156a10 10 0 0 1 10 10v116a10 10 0 0 1-10 10h-156a10 10 0 0 1-10-10z" fill="#fff"/><path d="M80.36 79.45a10 10 0 0 1 10-10h156a10 10 0 0 1 10 10v30h-176z" fill="#ccc"/><path d="M80.36 109.45h176v33h-176z" fill="#fff"/><path d="M80.36 141.45h176v33h-176z" fill="#fff"/><path d="M80.36 173.45h176v22a10 10 0 0 1-10 10h-156a10 10 0 0 1-10-10z" fill="#fff"/><path d="M80.86 109.45h175-175zM80.36 79.45a10 10 0 0 1 10-10h156a10 10 0 0 1 10 10v116a10 10 0 0 1-10 10h-156a10 10 0 0 1-10-10z" stroke="#333" fill="none"/><use xlink:href="#a" transform="matrix(1,0,0,1,90.36307622807112,69.45248468471208) translate(56 23.6)"/><use xlink:href="#b" transform="matrix(1,0,0,1,85.36307622807112,111.95248468471208) translate(0 17.1)"/><use xlink:href="#c" transform="matrix(1,0,0,1,85.36307622807112,143.9524846847121) translate(0 17.1)"/><use xlink:href="#d" transform="matrix(1,0,0,1,85.36307622807112,175.9524846847121) translate(0 17.1)"/><path d="M332.57 79.45a10 10 0 0 1 10-10h156a10 10 0 0 1 10 10v116a10 10 0 0 1-10 10h-156a10 10 0 0 1-10-10z" fill="#fff"/><path d="M332.57 79.45a10 10 0 0 1 10-10h156a10 10 0 0 1 10 10v30h-176z" fill="#ccc"/><path d="M332.57 109.45h176v33h-176z" fill="#fff"/><path d="M332.57 141.45h176v33h-176z" fill="#fff"/><path d="M332.57 173.45h176v22a10 10 0 0 1-10 10h-156a10 10 0 0 1-10-10z" fill="#fff"/><path d="M333.07 109.45h175-175zM332.57 79.45a10 10 0 0 1 10-10h156a10 10 0 0 1 10 10v116a10 10 0 0 1-10 10h-156a10 10 0 0 1-10-10z" stroke="#333" fill="none"/><use xlink:href="#e" transform="matrix(1,0,0,1,342.57178493174024,69.45248468471209) translate(0 23.6)"/><use xlink:href="#f" transform="matrix(1,0,0,1,337.57178493174024,111.95248468471209) translate(0 17.1)"/><use xlink:href="#g" transform="matrix(1,0,0,1,337.57178493174024,143.9524846847121) translate(0 17.1)"/><use xlink:href="#h" transform="matrix(1,0,0,1,337.57178493174024,175.9524846847121) translate(0 17.1)"/><path d="M80.36 276.4a10 10 0 0 1 10-10h156a10 10 0 0 1 10 10v84a10 10 0 0 1-10 10h-156a10 10 0 0 1-10-10z" fill="#fff"/><path d="M80.36 276.4a10 10 0 0 1 10-10h156a10 10 0 0 1 10 10v30h-176z" fill="#ccc"/><path d="M80.36 306.4h176v33h-176z" fill="#fff"/><path d="M80.36 338.4h176v22a10 10 0 0 1-10 10h-156a10 10 0 0 1-10-10z" fill="#fff"/><path d="M80.86 306.4h175-175zM80.36 276.4a10 10 0 0 1 10-10h156a10 10 0 0 1 10 10v84a10 10 0 0 1-10 10h-156a10 10 0 0 1-10-10z" stroke="#333" fill="none"/><use xlink:href="#i" transform="matrix(1,0,0,1,90.36307622807112,266.4126331299545) translate(0 23.6)"/><use xlink:href="#j" transform="matrix(1,0,0,1,85.36307622807112,308.9126331299545) translate(0 17.1)"/><use xlink:href="#b" transform="matrix(1,0,0,1,85.36307622807112,340.9126331299545) translate(0 17.1)"/><path d="M333.13 276.4a10 10 0 0 1 10-10h155.44a10 10 0 0 1 10 10v148a10 10 0 0 1-10 10H343.13a10 10 0 0 1-10-10z" fill="#fff"/><path d="M333.13 276.4a10 10 0 0 1 10-10h155.44a10 10 0 0 1 10 10v30H333.13z" fill="#ccc"/><path d="M333.13 306.4h175.44v33H333.13z" fill="#fff"/><path d="M333.13 338.4h175.44v33H333.13z" fill="#fff"/><path d="M333.13 370.4h175.44v33H333.13z" fill="#fff"/><path d="M333.13 402.4h175.44v22a10 10 0 0 1-10 10H343.13a10 10 0 0 1-10-10z" fill="#fff"/><path d="M333.63 306.4h174.44-174.44zM333.13 276.4a10 10 0 0 1 10-10h155.44a10 10 0 0 1 10 10v148a10 10 0 0 1-10 10H343.13a10 10 0 0 1-10-10z" stroke="#333" fill="none"/><use xlink:href="#k" transform="matrix(1,0,0,1,343.1282216968325,266.4126331299545) translate(0 23.6)"/><use xlink:href="#j" transform="matrix(1,0,0,1,338.1282216968325,308.9126331299545) translate(0 17.1)"/><use xlink:href="#l" transform="matrix(1,0,0,1,338.1282216968325,340.9126331299545) translate(0 17.1)"/><use xlink:href="#m" transform="matrix(1,0,0,1,338.1282216968325,372.9126331299545) translate(0 17.1)"/><use xlink:href="#m" transform="matrix(1,0,0,1,338.1282216968325,404.9126331299545) translate(0 17.1)"/><path d="M584.78 276.4a10 10 0 0 1 10-10h156a10 10 0 0 1 10 10v84a10 10 0 0 1-10 10h-156a10 10 0 0 1-10-10z" fill="#fff"/><path d="M584.78 276.4a10 10 0 0 1 10-10h156a10 10 0 0 1 10 10v30h-176z" fill="#ccc"/><path d="M584.78 306.4h176v33h-176z" fill="#fff"/><path d="M584.78 338.4h176v22a10 10 0 0 1-10 10h-156a10 10 0 0 1-10-10z" fill="#fff"/><path d="M585.28 306.4h175-175zM584.78 276.4a10 10 0 0 1 10-10h156a10 10 0 0 1 10 10v84a10 10 0 0 1-10 10h-156a10 10 0 0 1-10-10z" stroke="#333" fill="none"/><use xlink:href="#n" transform="matrix(1,0,0,1,594.7804936354094,266.4126331299545) translate(0 23.6)"/><use xlink:href="#j" transform="matrix(1,0,0,1,589.7804936354094,308.9126331299545) translate(0 17.1)"/><use xlink:href="#o" transform="matrix(1,0,0,1,589.7804936354094,340.9126331299545) translate(0 17.1)"/><path d="M584.78 79.45a10 10 0 0 1 10-10h156a10 10 0 0 1 10 10v116a10 10 0 0 1-10 10h-156a10 10 0 0 1-10-10z" fill="#fff"/><path d="M584.78 79.45a10 10 0 0 1 10-10h156a10 10 0 0 1 10 10v30h-176z" fill="#ccc"/><path d="M584.78 109.45h176v33h-176z" fill="#fff"/><path d="M584.78 141.45h176v33h-176z" fill="#fff"/><path d="M584.78 173.45h176v22a10 10 0 0 1-10 10h-156a10 10 0 0 1-10-10z" fill="#fff"/><path d="M585.28 109.45h175-175zM584.78 79.45a10 10 0 0 1 10-10h156a10 10 0 0 1 10 10v116a10 10 0 0 1-10 10h-156a10 10 0 0 1-10-10z" stroke="#333" fill="none"/><use xlink:href="#p" transform="matrix(1,0,0,1,594.7804936354094,69.45248468471209) translate(0 23.6)"/><use xlink:href="#o" transform="matrix(1,0,0,1,589.7804936354094,111.95248468471209) translate(0 17.1)"/><use xlink:href="#f" transform="matrix(1,0,0,1,589.7804936354094,143.9524846847121) translate(0 17.1)"/><use xlink:href="#q" transform="matrix(1,0,0,1,589.7804936354094,175.9524846847121) translate(0 17.1)"/><path d="M257.86 322.44h36.84a.04.04 0 0 0 .05-.05.04.04 0 0 1 .04-.05h21.84" stroke="#5e5e5e" stroke-width="2" fill="none"/><path d="M257.9 323.4h-1.04v-1.94h1.03z" stroke="#5e5e5e" stroke-width=".05" fill="#5e5e5e"/><path d="M330.63 322.35l-13 7.5v-15z" stroke="#5e5e5e" stroke-width="2" fill="#5e5e5e"/><path d="M583.28 157.57h-30.6a6 6 0 0 1-6-6v-20.2a6 6 0 0 0-6-6h-15.62" stroke="#5e5e5e" stroke-width="2" fill="none"/><path d="M584.28 158.54h-1.02v-1.95h1.02z" stroke="#5e5e5e" stroke-width=".05" fill="#5e5e5e"/><path d="M511.07 125.38l13-7.5v15z" stroke="#5e5e5e" stroke-width="2" fill="#5e5e5e"/><path d="M583.28 322.44h-36.5a.1.1 0 0 1-.1-.1.1.1 0 0 0-.1-.1h-21.52" stroke="#5e5e5e" stroke-width="2" fill="none"/><path d="M584.28 323.4h-1.02v-1.94h1.02z" stroke="#5e5e5e" stroke-width=".05" fill="#5e5e5e"/><path d="M511.07 322.25l13-7.5v15z" stroke="#5e5e5e" stroke-width="2" fill="#5e5e5e"/><path d="M762.28 354.62h33a6 6 0 0 0 6-6V131.38a6 6 0 0 0-6-6h-18" stroke="#5e5e5e" stroke-width="2" fill="none"/><path d="M762.3 355.6h-1.02v-1.96h1.03z" stroke="#5e5e5e" stroke-width=".05" fill="#5e5e5e"/><path d="M763.28 125.38l13-7.5v15z" stroke="#5e5e5e" stroke-width="2" fill="#5e5e5e"/><defs><path fill="#333" d="M44-68c0 29 11 47 38 47 30 0 42-19 51-41l28 9C148-21 126 4 82 4 31 4 10-29 12-85c3-77 74-140 146-93 12 8 15 23 18 40l-31 5c-1-22-13-36-36-36-52 0-65 49-65 101" id="r"/><path fill="#333" d="M30-147c31-64 166-65 159 27C183-49 158 1 86 4 9 8 1-88 30-147zM88-20c53 0 68-48 68-100 0-31-11-51-44-50-52 1-68 46-68 97 0 32 13 53 44 53" id="s"/><path fill="#333" d="M67-158c22-48 132-52 116 29L158 0h-32l25-140c3-38-53-32-70-12C52-117 51-52 38 0H6l36-190h30" id="t"/><path fill="#333" d="M51-54c-9 22 5 41 31 30L79-1C43 14 10-4 19-52l22-115H19l5-23h22l19-43h21l-9 43h35l-4 23H73" id="u"/><path fill="#333" d="M165-48c-4 18 1 34 23 27l-3 20c-29 8-62 0-52-35h-2C116-14 99 4 63 4 30 4 8-16 8-49c0-68 71-67 138-67 10-26 0-56-31-54-26 1-42 9-47 31l-32-5c8-67 160-71 144 15-5 28-9 54-15 81zM42-50c3 52 80 24 89-6 7-12 7-24 11-38-47 1-103-4-100 44" id="v"/><g id="a"><use transform="matrix(0.05,0,0,0.05,0,0)" xlink:href="#r"/><use transform="matrix(0.05,0,0,0.05,9,0)" xlink:href="#s"/><use transform="matrix(0.05,0,0,0.05,19,0)" xlink:href="#t"/><use transform="matrix(0.05,0,0,0.05,29,0)" xlink:href="#u"/><use transform="matrix(0.05,0,0,0.05,34,0)" xlink:href="#v"/></g><path fill="#333" d="M67 3c-93-2-31-127-26-193h32L48-50c-3 39 53 32 70 12 30-34 30-101 43-152h32L157 0h-30c1-10 6-24 4-33-14 20-29 37-64 36zm28-214c10-23 31-35 45-54h38l-1 5-66 49H95" id="w"/><path fill="#333" d="M248-111c6-24 9-61-24-58-72 9-57 108-77 169h-31l26-142c3-37-50-30-64-10C52-115 50-51 37 0H6l36-190h30c-1 10-6 24-4 32 13-43 101-52 105 5 13-22 29-41 61-41 90 0 28 129 23 194h-31" id="x"/><path fill="#333" d="M111-194c62-3 86 47 72 106H45c-7 38 6 69 45 68 27-1 43-14 53-32l24 11C152-15 129 4 87 4 38 3 12-23 12-71c0-70 32-119 99-123zm44 81c14-66-71-72-95-28-4 8-8 17-11 28h106" id="y"/><path fill="#333" d="M66-151c12-25 30-51 66-40l-6 26C45-176 58-65 38 0H6l36-190h30" id="z"/><path fill="#333" d="M-28 44V31h207v13H-28" id="A"/><g id="b"><use transform="matrix(0.05,0,0,0.05,0,0)" xlink:href="#t"/><use transform="matrix(0.05,0,0,0.05,10,0)" xlink:href="#w"/><use transform="matrix(0.05,0,0,0.05,20,0)" xlink:href="#x"/><use transform="matrix(0.05,0,0,0.05,34.95,0)" xlink:href="#y"/><use transform="matrix(0.05,0,0,0.05,44.95,0)" xlink:href="#z"/><use transform="matrix(0.05,0,0,0.05,50.900000000000006,0)" xlink:href="#s"/><use transform="matrix(0.05,0,0,0.05,60.900000000000006,0)" xlink:href="#A"/><use transform="matrix(0.05,0,0,0.05,70.9,0)" xlink:href="#r"/><use transform="matrix(0.05,0,0,0.05,79.9,0)" xlink:href="#s"/><use transform="matrix(0.05,0,0,0.05,89.9,0)" xlink:href="#t"/><use transform="matrix(0.05,0,0,0.05,99.9,0)" xlink:href="#u"/><use transform="matrix(0.05,0,0,0.05,104.9,0)" xlink:href="#v"/><path fill="#333" d="M-.9 1.25h116.7v1.32H-.9z"/></g><path fill="#333" d="M103-194c29 0 47 14 56 36 2-11 5-23 8-32h30L160-5C157 61 82 97 21 62 9 55 4 45 1 30l28-7c7 42 83 31 92-3 4-16 9-38 13-55-13 20-29 36-62 36-40 0-60-25-60-64 0-71 23-131 91-131zm4 24c-53 0-58 54-61 104-2 27 10 44 36 44 49 0 65-50 67-102 1-29-15-46-42-46" id="B"/><path fill="#333" d="M111-194c62-3 86 47 72 106H45c-7 38 6 69 45 68 27-1 43-14 53-32l24 11C152-15 129 4 87 4 38 3 12-23 12-71c0-70 32-119 99-123zm44 81c14-66-71-72-95-28-4 8-8 17-11 28h106zm-10-149c9 18 24 30 30 51-29 2-32-20-49-30-22 10-32 32-67 30v-4l51-47h35" id="C"/><path fill="#333" d="M50-231l6-30h32l-6 30H50zM6 0l37-190h31L37 0H6" id="D"/><g id="c"><use transform="matrix(0.05,0,0,0.05,0,0)" xlink:href="#t"/><use transform="matrix(0.05,0,0,0.05,10,0)" xlink:href="#w"/><use transform="matrix(0.05,0,0,0.05,20,0)" xlink:href="#x"/><use transform="matrix(0.05,0,0,0.05,34.95,0)" xlink:href="#y"/><use transform="matrix(0.05,0,0,0.05,44.95,0)" xlink:href="#z"/><use transform="matrix(0.05,0,0,0.05,50.900000000000006,0)" xlink:href="#s"/><use transform="matrix(0.05,0,0,0.05,60.900000000000006,0)" xlink:href="#A"/><use transform="matrix(0.05,0,0,0.05,70.9,0)" xlink:href="#v"/><use transform="matrix(0.05,0,0,0.05,80.9,0)" xlink:href="#B"/><use transform="matrix(0.05,0,0,0.05,90.9,0)" xlink:href="#C"/><use transform="matrix(0.05,0,0,0.05,100.9,0)" xlink:href="#t"/><use transform="matrix(0.05,0,0,0.05,110.9,0)" xlink:href="#r"/><use transform="matrix(0.05,0,0,0.05,119.9,0)" xlink:href="#D"/><use transform="matrix(0.05,0,0,0.05,123.85000000000001,0)" xlink:href="#v"/><path fill="#333" d="M-.9 1.25h135.65v1.32H-.9z"/></g><path fill="#333" d="M55-144c13 50 104 24 104 88C159 21 15 23 1-39l26-10c6 40 102 42 102-4-13-50-104-23-104-87 0-71 143-71 148-8l-29 4c-5-35-85-37-89 0" id="E"/><path fill="#333" d="M6 0l50-261h32L37 0H6" id="F"/><path fill="#333" d="M133-28C103 26-5 8 13-77c13-62 24-115 90-117 29-1 46 15 56 35l19-102h32L160 0h-30zM45-64c-2 27 10 43 35 43 54-1 69-50 69-103 0-29-15-46-42-46-53-1-58 58-62 106" id="G"/><g id="d"><use transform="matrix(0.05,0,0,0.05,0,0)" xlink:href="#E"/><use transform="matrix(0.05,0,0,0.05,9,0)" xlink:href="#v"/><use transform="matrix(0.05,0,0,0.05,19,0)" xlink:href="#F"/><use transform="matrix(0.05,0,0,0.05,22.95,0)" xlink:href="#G"/><use transform="matrix(0.05,0,0,0.05,32.95,0)" xlink:href="#s"/></g><g id="e"><use transform="matrix(0.05,0,0,0.05,0,0)" xlink:href="#v"/><use transform="matrix(0.05,0,0,0.05,10,0)" xlink:href="#B"/><use transform="matrix(0.05,0,0,0.05,20,0)" xlink:href="#C"/><use transform="matrix(0.05,0,0,0.05,30,0)" xlink:href="#t"/><use transform="matrix(0.05,0,0,0.05,40,0)" xlink:href="#r"/><use transform="matrix(0.05,0,0,0.05,49,0)" xlink:href="#D"/><use transform="matrix(0.05,0,0,0.05,52.95,0)" xlink:href="#v"/></g><g id="f"><use transform="matrix(0.05,0,0,0.05,0,0)" xlink:href="#t"/><use transform="matrix(0.05,0,0,0.05,10,0)" xlink:href="#s"/><use transform="matrix(0.05,0,0,0.05,20,0)" xlink:href="#x"/><use transform="matrix(0.05,0,0,0.05,34.95,0)" xlink:href="#y"/><use transform="matrix(0.05,0,0,0.05,44.95,0)" xlink:href="#A"/><use transform="matrix(0.05,0,0,0.05,54.95,0)" xlink:href="#v"/><use transform="matrix(0.05,0,0,0.05,64.95,0)" xlink:href="#B"/><use transform="matrix(0.05,0,0,0.05,74.95,0)" xlink:href="#C"/><use transform="matrix(0.05,0,0,0.05,84.95,0)" xlink:href="#t"/><use transform="matrix(0.05,0,0,0.05,94.95,0)" xlink:href="#r"/><use transform="matrix(0.05,0,0,0.05,103.95,0)" xlink:href="#D"/><use transform="matrix(0.05,0,0,0.05,107.9,0)" xlink:href="#v"/><path fill="#333" d="M-.9 1.25h119.7v1.32H-.9z"/></g><g id="g"><use transform="matrix(0.05,0,0,0.05,0,0)" xlink:href="#r"/><use transform="matrix(0.05,0,0,0.05,9,0)" xlink:href="#D"/><use transform="matrix(0.05,0,0,0.05,12.949999999999998,0)" xlink:href="#G"/><use transform="matrix(0.05,0,0,0.05,22.95,0)" xlink:href="#v"/><use transform="matrix(0.05,0,0,0.05,32.95,0)" xlink:href="#G"/><use transform="matrix(0.05,0,0,0.05,42.95,0)" xlink:href="#y"/><use transform="matrix(0.05,0,0,0.05,52.95,0)" xlink:href="#A"/><use transform="matrix(0.05,0,0,0.05,62.95,0)" xlink:href="#v"/><use transform="matrix(0.05,0,0,0.05,72.95,0)" xlink:href="#B"/><use transform="matrix(0.05,0,0,0.05,82.95,0)" xlink:href="#C"/><use transform="matrix(0.05,0,0,0.05,92.95,0)" xlink:href="#t"/><use transform="matrix(0.05,0,0,0.05,102.95,0)" xlink:href="#r"/><use transform="matrix(0.05,0,0,0.05,111.95,0)" xlink:href="#D"/><use transform="matrix(0.05,0,0,0.05,115.9,0)" xlink:href="#v"/></g><path fill="#333" d="M89 0H52L20-190h33L74-25l89-165h34" id="H"/><g id="h"><use transform="matrix(0.05,0,0,0.05,0,0)" xlink:href="#v"/><use transform="matrix(0.05,0,0,0.05,10,0)" xlink:href="#u"/><use transform="matrix(0.05,0,0,0.05,15,0)" xlink:href="#D"/><use transform="matrix(0.05,0,0,0.05,18.95,0)" xlink:href="#H"/><use transform="matrix(0.05,0,0,0.05,27.950000000000003,0)" xlink:href="#s"/><use transform="matrix(0.05,0,0,0.05,37.95,0)" xlink:href="#E"/></g><path fill="#333" d="M67-162c32-53 139-36 121 50C175-51 163 2 97 4 68 4 52-11 42-31 38 6 28 39 22 75H-9l50-265h29c-1 10 0 20-3 28zm89 36c0-26-10-43-35-43-54 0-67 50-69 103-1 29 14 45 42 46 53 0 62-58 62-106" id="I"/><g id="i"><use transform="matrix(0.05,0,0,0.05,0,0)" xlink:href="#G"/><use transform="matrix(0.05,0,0,0.05,10,0)" xlink:href="#y"/><use transform="matrix(0.05,0,0,0.05,20,0)" xlink:href="#I"/><use transform="matrix(0.05,0,0,0.05,30,0)" xlink:href="#s"/><use transform="matrix(0.05,0,0,0.05,40,0)" xlink:href="#E"/><use transform="matrix(0.05,0,0,0.05,49,0)" xlink:href="#D"/><use transform="matrix(0.05,0,0,0.05,52.95,0)" xlink:href="#u"/><use transform="matrix(0.05,0,0,0.05,57.95,0)" xlink:href="#v"/><use transform="matrix(0.05,0,0,0.05,67.95,0)" xlink:href="#t"/><use transform="matrix(0.05,0,0,0.05,77.95,0)" xlink:href="#u"/><use transform="matrix(0.05,0,0,0.05,82.95,0)" xlink:href="#y"/></g><path fill="#333" d="M14 0l48-248h34L48 0H14" id="J"/><path fill="#333" d="M248-139C247-14 144 9 11 0l48-248c105-6 190 8 189 109zm-34 0c1-70-52-87-126-82L50-27c98 7 163-21 164-112" id="K"/><g id="j"><use transform="matrix(0.05,0,0,0.05,0,0)" xlink:href="#J"/><use transform="matrix(0.05,0,0,0.05,5,0)" xlink:href="#K"/><path fill="#333" d="M-.9 1.25h19.75v1.32H-.9z"/></g><g id="k"><use transform="matrix(0.05,0,0,0.05,0,0)" xlink:href="#r"/><use transform="matrix(0.05,0,0,0.05,9,0)" xlink:href="#F"/><use transform="matrix(0.05,0,0,0.05,12.949999999999998,0)" xlink:href="#D"/><use transform="matrix(0.05,0,0,0.05,16.9,0)" xlink:href="#y"/><use transform="matrix(0.05,0,0,0.05,26.899999999999995,0)" xlink:href="#t"/><use transform="matrix(0.05,0,0,0.05,36.9,0)" xlink:href="#u"/><use transform="matrix(0.05,0,0,0.05,41.9,0)" xlink:href="#y"/></g><g id="l"><use transform="matrix(0.05,0,0,0.05,0,0)" xlink:href="#t"/><use transform="matrix(0.05,0,0,0.05,10,0)" xlink:href="#s"/><use transform="matrix(0.05,0,0,0.05,20,0)" xlink:href="#x"/><use transform="matrix(0.05,0,0,0.05,34.95,0)" xlink:href="#y"/><use transform="matrix(0.05,0,0,0.05,44.95,0)" xlink:href="#A"/><use transform="matrix(0.05,0,0,0.05,54.95,0)" xlink:href="#r"/><use transform="matrix(0.05,0,0,0.05,63.95,0)" xlink:href="#F"/><use transform="matrix(0.05,0,0,0.05,67.9,0)" xlink:href="#D"/><use transform="matrix(0.05,0,0,0.05,71.85000000000001,0)" xlink:href="#y"/><use transform="matrix(0.05,0,0,0.05,81.85000000000001,0)" xlink:href="#t"/><use transform="matrix(0.05,0,0,0.05,91.85000000000001,0)" xlink:href="#u"/><use transform="matrix(0.05,0,0,0.05,96.85000000000001,0)" xlink:href="#y"/></g><path fill="#333" d="M125-24c46 0 70-25 89-51l25 16C214-24 183 4 123 4 8 4-5-146 60-208c32-50 158-61 191-5 5 7 9 14 11 22l-32 10c-9-28-33-43-69-43-74 0-108 51-108 125 0 46 24 75 72 75" id="L"/><g id="m"><use transform="matrix(0.05,0,0,0.05,0,0)" xlink:href="#L"/><use transform="matrix(0.05,0,0,0.05,12.950000000000001,0)" xlink:href="#v"/><use transform="matrix(0.05,0,0,0.05,22.950000000000003,0)" xlink:href="#x"/><use transform="matrix(0.05,0,0,0.05,37.900000000000006,0)" xlink:href="#I"/><use transform="matrix(0.05,0,0,0.05,47.900000000000006,0)" xlink:href="#s"/></g><g id="n"><use transform="matrix(0.05,0,0,0.05,0,0)" xlink:href="#u"/><use transform="matrix(0.05,0,0,0.05,5,0)" xlink:href="#s"/><use transform="matrix(0.05,0,0,0.05,15,0)" xlink:href="#x"/><use transform="matrix(0.05,0,0,0.05,29.950000000000003,0)" xlink:href="#v"/><use transform="matrix(0.05,0,0,0.05,39.95,0)" xlink:href="#G"/><use transform="matrix(0.05,0,0,0.05,49.95,0)" xlink:href="#s"/><use transform="matrix(0.05,0,0,0.05,59.95,0)" xlink:href="#z"/></g><path fill="#333" d="M111-194c62-3 86 47 72 106H45c-7 38 6 69 45 68 27-1 43-14 53-32l24 11C152-15 129 4 87 4 38 3 12-23 12-71c0-70 32-119 99-123zm44 81c14-66-71-72-95-28-4 8-8 17-11 28h106zm-61-98c10-23 31-35 45-54h38l-1 5-66 49H94" id="M"/><g id="o"><use transform="matrix(0.05,0,0,0.05,0,0)" xlink:href="#t"/><use transform="matrix(0.05,0,0,0.05,10,0)" xlink:href="#w"/><use transform="matrix(0.05,0,0,0.05,20,0)" xlink:href="#x"/><use transform="matrix(0.05,0,0,0.05,34.95,0)" xlink:href="#y"/><use transform="matrix(0.05,0,0,0.05,44.95,0)" xlink:href="#z"/><use transform="matrix(0.05,0,0,0.05,50.900000000000006,0)" xlink:href="#s"/><use transform="matrix(0.05,0,0,0.05,60.900000000000006,0)" xlink:href="#A"/><use transform="matrix(0.05,0,0,0.05,70.9,0)" xlink:href="#y"/><use transform="matrix(0.05,0,0,0.05,80.9,0)" xlink:href="#x"/><use transform="matrix(0.05,0,0,0.05,95.85000000000001,0)" xlink:href="#I"/><use transform="matrix(0.05,0,0,0.05,105.85000000000001,0)" xlink:href="#z"/><use transform="matrix(0.05,0,0,0.05,111.80000000000001,0)" xlink:href="#M"/><use transform="matrix(0.05,0,0,0.05,121.80000000000001,0)" xlink:href="#E"/><use transform="matrix(0.05,0,0,0.05,130.8,0)" xlink:href="#u"/><use transform="matrix(0.05,0,0,0.05,135.8,0)" xlink:href="#D"/><use transform="matrix(0.05,0,0,0.05,139.75,0)" xlink:href="#x"/><use transform="matrix(0.05,0,0,0.05,154.7,0)" xlink:href="#s"/><path fill="#333" d="M-.9 1.25h166.5v1.32H-.9z"/></g><g id="p"><use transform="matrix(0.05,0,0,0.05,0,0)" xlink:href="#y"/><use transform="matrix(0.05,0,0,0.05,10,0)" xlink:href="#x"/><use transform="matrix(0.05,0,0,0.05,24.950000000000003,0)" xlink:href="#I"/><use transform="matrix(0.05,0,0,0.05,34.95,0)" xlink:href="#z"/><use transform="matrix(0.05,0,0,0.05,40.900000000000006,0)" xlink:href="#M"/><use transform="matrix(0.05,0,0,0.05,50.900000000000006,0)" xlink:href="#E"/><use transform="matrix(0.05,0,0,0.05,59.900000000000006,0)" xlink:href="#u"/><use transform="matrix(0.05,0,0,0.05,64.9,0)" xlink:href="#D"/><use transform="matrix(0.05,0,0,0.05,68.85000000000001,0)" xlink:href="#x"/><use transform="matrix(0.05,0,0,0.05,83.80000000000001,0)" xlink:href="#s"/></g><g id="q"><use transform="matrix(0.05,0,0,0.05,0,0)" xlink:href="#H"/><use transform="matrix(0.05,0,0,0.05,9,0)" xlink:href="#v"/><use transform="matrix(0.05,0,0,0.05,19,0)" xlink:href="#F"/><use transform="matrix(0.05,0,0,0.05,22.95,0)" xlink:href="#s"/><use transform="matrix(0.05,0,0,0.05,32.95,0)" xlink:href="#z"/><path fill="#333" d="M-.9 1.25h40.7v1.32H-.9z"/></g></defs></g></svg>